<svg width="230" height="69" viewBox="0 0 230 69" fill="none" xmlns="http://www.w3.org/2000/svg">
<g clip-path="url(#clip0_0_614)">
<path d="M211.697 9.92601e-05H18.4708C17.7665 9.92601e-05 17.0706 9.92602e-05 16.3681 0.00350434C15.7801 0.00690943 15.1968 0.0168012 14.6031 0.0251266C13.3133 0.0385798 12.0266 0.139157 10.7541 0.325983C9.48341 0.516876 8.2525 0.876765 7.10303 1.39348C5.95497 1.91456 4.90595 2.59165 3.99403 3.40019C3.07733 4.20646 2.31318 5.1384 1.73098 6.16017C1.14717 7.1799 0.742361 8.27264 0.530522 9.40065C0.316669 10.5272 0.201592 11.6668 0.186326 12.8091C0.168501 13.3311 0.166619 13.8549 0.157227 14.3769V53.7299C0.166619 54.2586 0.168501 54.7707 0.186326 55.2995C0.201597 56.4418 0.316673 57.5813 0.530522 58.7078C0.741776 59.8365 1.14661 60.9299 1.73098 61.95C2.31292 62.9684 3.07717 63.8966 3.99403 64.6984C4.90249 65.5105 5.95219 66.1881 7.10303 66.7052C8.25249 67.2233 9.48327 67.5853 10.7541 67.7791C12.0268 67.9645 13.3134 68.0651 14.6031 68.0801C15.1968 68.0917 15.7801 68.0984 16.3681 68.0984C17.0706 68.1018 17.7665 68.1018 18.4708 68.1018H211.697C212.387 68.1018 213.089 68.1018 213.779 68.0984C214.364 68.0984 214.965 68.0917 215.55 68.0801C216.837 68.0659 218.121 67.9653 219.391 67.7791C220.666 67.5839 221.901 67.222 223.056 66.7052C224.206 66.1878 225.255 65.5102 226.163 64.6984C227.077 63.8935 227.843 62.966 228.432 61.95C229.012 60.9291 229.413 59.8358 229.621 58.7078C229.836 57.5811 229.955 56.4419 229.978 55.2995C229.985 54.7707 229.985 54.2586 229.985 53.7299C230 53.1114 230 52.4963 230 51.8677V16.2358C230 15.6123 230 14.9938 229.985 14.3769C229.985 13.8549 229.985 13.3311 229.978 12.8091C229.955 11.6666 229.836 10.5273 229.621 9.40058C229.413 8.27323 229.012 7.18057 228.432 6.1601C227.247 4.11207 225.367 2.44499 223.056 1.39332C221.901 0.877874 220.666 0.518081 219.391 0.32583C218.121 0.13818 216.837 0.0375684 215.55 0.0248883C214.965 0.0165799 214.364 0.00660297 213.779 0.00328301C213.089 -0.00012207 212.387 -0.00012207 211.697 -0.00012207V9.92601e-05Z" fill="#909090"/>
<path d="M16.2126 66.617C15.6264 66.617 15.0543 66.6104 14.4727 66.5988C13.2679 66.5849 12.0658 66.4921 10.8764 66.3211C9.76736 66.152 8.69299 65.8376 7.68875 65.3881C6.69371 64.9423 5.78615 64.3578 5.00084 63.6569C4.20417 62.9643 3.5409 62.161 3.03733 61.2788C2.5282 60.3909 2.17586 59.4392 1.99257 58.4568C1.79463 57.4012 1.68754 56.3338 1.67221 55.2638C1.66001 54.9047 1.64404 53.7089 1.64404 53.7089V14.371C1.64404 14.371 1.66105 13.1936 1.67231 12.8477C1.68698 11.7794 1.79345 10.7137 1.9908 9.65976C2.17443 8.67467 2.52704 7.72019 3.03644 6.82937C3.53817 5.94781 4.19775 5.1439 4.98963 4.44881C5.78061 3.74711 6.69107 3.15958 7.6878 2.70764C8.68974 2.25958 9.76208 1.94734 10.8689 1.78137C12.0622 1.60864 13.2684 1.51525 14.4775 1.50199L16.2136 1.4812H213.946L215.703 1.50283C216.901 1.51543 218.096 1.60798 219.278 1.7797C220.396 1.94775 221.48 2.26218 222.493 2.71263C224.49 3.62342 226.115 5.06438 227.14 6.83353C227.641 7.7182 227.988 8.66489 228.17 9.64147C228.369 10.7041 228.481 11.7782 228.504 12.8552C228.51 13.3375 228.51 13.8555 228.51 14.371C228.525 15.0096 228.525 15.6174 228.525 16.2302V51.8696C228.525 52.4883 228.525 53.0919 228.51 53.7006C228.51 54.2543 228.51 54.7616 228.502 55.2837C228.48 56.3415 228.37 57.3965 228.173 58.4401C227.994 59.4296 227.643 60.3887 227.134 61.2839C226.627 62.1565 225.968 62.9529 225.18 63.6436C224.394 64.3482 223.485 64.9362 222.488 65.3848C221.477 65.8378 220.395 66.1534 219.278 66.3211C218.089 66.493 216.887 66.5858 215.682 66.5988C215.118 66.6104 214.528 66.617 213.955 66.617L211.87 66.6204L16.2126 66.617Z" fill="#222222"/>
<path d="M55.9958 34.5627C56.0141 33.1416 56.3915 31.7483 57.093 30.5123C57.7945 29.2764 58.7972 28.2379 60.0079 27.4936C59.2388 26.3952 58.2242 25.4913 57.0446 24.8536C55.8651 24.2159 54.553 23.862 53.2128 23.8201C50.3538 23.52 47.5822 25.5308 46.1253 25.5308C44.6402 25.5308 42.3971 23.8499 39.9817 23.8996C38.4193 23.9501 36.8966 24.4044 35.562 25.2183C34.2275 26.0322 33.1265 27.178 32.3663 28.5439C29.0736 34.2447 31.5297 42.623 34.6838 47.2311C36.2619 49.4876 38.1062 52.0081 40.5195 51.9187C42.881 51.8208 43.763 50.4129 46.6136 50.4129C49.4377 50.4129 50.2652 51.9187 52.7274 51.8619C55.2614 51.8208 56.858 49.5954 58.3807 47.3176C59.5146 45.7098 60.3871 43.9328 60.9659 42.0524C59.4937 41.4298 58.2374 40.3875 57.3535 39.0556C56.4697 37.7237 55.9975 36.1611 55.9958 34.5627V34.5627Z" fill="white"/>
<path d="M51.3448 20.7894C52.7264 19.1307 53.4071 16.9988 53.2423 14.8464C51.1314 15.0681 49.1816 16.077 47.7813 17.672C47.0966 18.4512 46.5722 19.3577 46.2381 20.3397C45.904 21.3216 45.7667 22.3598 45.834 23.3949C46.8899 23.4058 47.9344 23.1769 48.8889 22.7256C49.8435 22.2743 50.6832 21.6122 51.3448 20.7894Z" fill="white"/>
<path d="M85.847 46.2062H77.7882L75.8528 51.9207H72.4395L80.0726 30.7786H83.619L91.2522 51.9207H87.7806L85.847 46.2062ZM78.6228 43.5693H85.0107L81.8617 34.2951H81.7736L78.6228 43.5693Z" fill="white"/>
<path d="M107.737 44.2143C107.737 49.0044 105.173 52.0819 101.304 52.0819C100.324 52.1332 99.3496 51.9074 98.4919 51.4304C97.6342 50.9535 96.9281 50.2446 96.4545 49.3851H96.3813V57.0199H93.2173V36.5063H96.2799V39.0701H96.3381C96.8335 38.2146 97.5515 37.5094 98.4157 37.0296C99.28 36.5497 100.258 36.3131 101.246 36.345C105.158 36.345 107.737 39.4375 107.737 44.2143ZM104.485 44.2143C104.485 41.0935 102.872 39.0418 100.412 39.0418C97.9941 39.0418 96.368 41.1367 96.368 44.2143C96.368 47.3201 97.9941 49.4001 100.412 49.4001C102.872 49.4001 104.485 47.3633 104.485 44.2143Z" fill="white"/>
<path d="M124.703 44.2143C124.703 49.0043 122.139 52.0819 118.27 52.0819C117.29 52.1331 116.315 51.9074 115.458 51.4304C114.6 50.9535 113.894 50.2446 113.42 49.385H113.347V57.0199H110.183V36.5063H113.246V39.0701H113.304C113.799 38.2146 114.517 37.5094 115.382 37.0296C116.246 36.5497 117.224 36.3131 118.212 36.345C122.124 36.345 124.703 39.4375 124.703 44.2143ZM121.451 44.2143C121.451 41.0935 119.838 39.0418 117.377 39.0418C114.96 39.0418 113.334 41.1367 113.334 44.2143C113.334 47.3201 114.96 49.4 117.377 49.4C119.838 49.4 121.451 47.3633 121.451 44.2143H121.451Z" fill="white"/>
<path d="M135.915 46.03C136.15 48.1266 138.186 49.5032 140.97 49.5032C143.636 49.5032 145.555 48.1265 145.555 46.2361C145.555 44.595 144.398 43.6124 141.658 42.9391L138.918 42.279C135.036 41.3413 133.233 39.5256 133.233 36.5795C133.233 32.9316 136.412 30.426 140.926 30.426C145.394 30.426 148.456 32.9316 148.56 36.5795H145.366C145.174 34.4696 143.43 33.196 140.881 33.196C138.333 33.196 136.588 34.4845 136.588 36.36C136.588 37.8547 137.702 38.7342 140.428 39.4075L142.757 39.9795C147.095 41.0053 148.897 42.7478 148.897 45.8403C148.897 49.7957 145.746 52.273 140.735 52.273C136.046 52.273 132.881 49.8539 132.676 46.0298L135.915 46.03Z" fill="white"/>
<path d="M155.726 32.8585V36.5064H158.657V39.0119H155.726V47.5097C155.726 48.8298 156.313 49.445 157.601 49.445C157.949 49.4389 158.297 49.4145 158.642 49.3718V51.8624C158.063 51.9707 157.474 52.0197 156.885 52.0087C153.764 52.0087 152.547 50.8366 152.547 47.8472V39.0119H150.306V36.5064H152.547V32.8585H155.726Z" fill="white"/>
<path d="M160.355 44.2144C160.355 39.3645 163.211 36.3169 167.666 36.3169C172.135 36.3169 174.978 39.3644 174.978 44.2144C174.978 49.0776 172.15 52.112 167.666 52.112C163.183 52.112 160.355 49.0776 160.355 44.2144ZM171.754 44.2144C171.754 40.8875 170.229 38.9239 167.666 38.9239C165.102 38.9239 163.579 40.9025 163.579 44.2144C163.579 47.5547 165.102 49.5033 167.666 49.5033C170.229 49.5033 171.754 47.5547 171.754 44.2144H171.754Z" fill="white"/>
<path d="M177.586 36.5064H180.604V39.13H180.677C180.882 38.3106 181.362 37.5864 182.037 37.0793C182.712 36.5721 183.541 36.3129 184.385 36.3451C184.75 36.3438 185.113 36.3834 185.469 36.4631V39.4226C185.009 39.282 184.529 39.2174 184.047 39.2314C183.588 39.2128 183.13 39.2938 182.704 39.469C182.279 39.6442 181.896 39.9093 181.583 40.2462C181.27 40.5832 181.033 40.9839 180.89 41.4209C180.746 41.8578 180.698 42.3208 180.75 42.7778V51.9207H177.586L177.586 36.5064Z" fill="white"/>
<path d="M200.057 47.3934C199.631 50.1916 196.906 52.112 193.419 52.112C188.935 52.112 186.152 49.1076 186.152 44.2876C186.152 39.4526 188.95 36.3169 193.286 36.3169C197.551 36.3169 200.233 39.2465 200.233 43.9201V45.0042H189.346V45.1954C189.296 45.7627 189.367 46.3342 189.554 46.8719C189.742 47.4096 190.042 47.9013 190.434 48.3142C190.826 48.7272 191.302 49.052 191.829 49.267C192.356 49.482 192.923 49.5824 193.492 49.5615C194.24 49.6315 194.99 49.4584 195.632 49.0677C196.273 48.6771 196.771 48.0899 197.052 47.3934L200.057 47.3934ZM189.361 42.7929H197.067C197.095 42.2828 197.018 41.7724 196.84 41.2936C196.662 40.8148 196.386 40.378 196.031 40.0107C195.676 39.6433 195.249 39.3533 194.777 39.1589C194.304 38.9644 193.797 38.8697 193.286 38.8807C192.771 38.8776 192.26 38.9766 191.783 39.172C191.307 39.3673 190.873 39.6552 190.508 40.0189C190.143 40.3826 189.854 40.815 189.657 41.2911C189.46 41.7672 189.359 42.2776 189.361 42.7929V42.7929Z" fill="white"/>
<path d="M78.2261 14.8647C78.8894 14.8171 79.555 14.9173 80.175 15.1581C80.7949 15.3989 81.3536 15.7743 81.8109 16.2571C82.2682 16.74 82.6126 17.3184 82.8193 17.9505C83.026 18.5826 83.0898 19.2527 83.0062 19.9124C83.0062 23.1579 81.2521 25.0235 78.2261 25.0235H74.5566V14.8647H78.2261ZM76.1345 23.5868H78.0498C78.5238 23.6151 78.9982 23.5374 79.4383 23.3593C79.8785 23.1812 80.2734 22.9072 80.5944 22.5572C80.9153 22.2072 81.1541 21.7901 81.2935 21.3361C81.4329 20.8822 81.4693 20.4029 81.4 19.9331C81.4642 19.4652 81.4241 18.9889 81.2826 18.5383C81.1411 18.0877 80.9017 17.674 80.5815 17.3268C80.2613 16.9796 79.8683 16.7075 79.4306 16.53C78.9929 16.3526 78.5214 16.2741 78.0498 16.3003H76.1345V23.5868Z" fill="white"/>
<path d="M84.7886 21.187C84.7404 20.6832 84.798 20.1749 84.9578 19.6946C85.1176 19.2144 85.3759 18.7729 85.7163 18.3983C86.0567 18.0238 86.4717 17.7246 86.9345 17.5198C87.3974 17.315 87.8979 17.2092 88.404 17.2092C88.9101 17.2092 89.4106 17.315 89.8735 17.5198C90.3363 17.7246 90.7512 18.0238 91.0916 18.3983C91.4321 18.7729 91.6904 19.2144 91.8502 19.6946C92.01 20.1749 92.0676 20.6832 92.0194 21.187C92.0685 21.6913 92.0116 22.2004 91.8522 22.6814C91.6929 23.1624 91.4347 23.6047 91.0942 23.98C90.7537 24.3553 90.3384 24.6551 89.8751 24.8604C89.4118 25.0656 88.9107 25.1716 88.404 25.1716C87.8973 25.1716 87.3962 25.0656 86.9329 24.8604C86.4696 24.6551 86.0543 24.3553 85.7138 23.98C85.3733 23.6047 85.1151 23.1624 84.9558 22.6814C84.7964 22.2004 84.7395 21.6913 84.7886 21.187V21.187ZM90.4632 21.187C90.4632 19.5252 89.7166 18.5534 88.4065 18.5534C87.0913 18.5534 86.3515 19.5252 86.3515 21.187C86.3515 22.8621 87.0914 23.8265 88.4065 23.8265C89.7167 23.8264 90.4632 22.8555 90.4632 21.187H90.4632Z" fill="white"/>
<path d="M101.631 25.0234H100.061L98.4767 19.377H98.357L96.7791 25.0234H95.2245L93.1113 17.3569H94.646L96.0193 23.2069H96.1324L97.7085 17.3569H99.16L100.736 23.2069H100.856L102.223 17.3569H103.736L101.631 25.0234Z" fill="white"/>
<path d="M105.513 17.3571H106.97V18.5749H107.083C107.275 18.1375 107.598 17.7709 108.008 17.526C108.418 17.2812 108.894 17.1704 109.371 17.2091C109.744 17.181 110.118 17.2373 110.466 17.3737C110.815 17.51 111.128 17.723 111.383 17.9969C111.638 18.2707 111.828 18.5984 111.939 18.9556C112.05 19.3128 112.079 19.6905 112.024 20.0605V25.0234H110.511V20.4404C110.511 19.2084 109.976 18.5957 108.857 18.5957C108.603 18.5839 108.351 18.627 108.116 18.7221C107.881 18.8172 107.669 18.9619 107.495 19.1464C107.321 19.331 107.189 19.5509 107.108 19.7912C107.027 20.0315 106.999 20.2864 107.026 20.5385V25.0235H105.513L105.513 17.3571Z" fill="white"/>
<path d="M114.435 14.3643H115.948V25.0234H114.435V14.3643Z" fill="white"/>
<path d="M118.051 21.1869C118.003 20.6831 118.061 20.1747 118.221 19.6945C118.38 19.2142 118.639 18.7726 118.979 18.3981C119.32 18.0236 119.735 17.7243 120.197 17.5195C120.66 17.3148 121.161 17.209 121.667 17.209C122.173 17.209 122.674 17.3148 123.137 17.5195C123.6 17.7243 124.014 18.0236 124.355 18.3981C124.695 18.7726 124.954 19.2142 125.114 19.6945C125.273 20.1747 125.331 20.6831 125.283 21.1869C125.332 21.6913 125.275 22.2003 125.116 22.6813C124.956 23.1623 124.698 23.6047 124.357 23.9799C124.017 24.3552 123.602 24.655 123.138 24.8602C122.675 25.0654 122.174 25.1714 121.667 25.1714C121.16 25.1714 120.659 25.0654 120.196 24.8602C119.733 24.655 119.317 24.3552 118.977 23.9799C118.636 23.6047 118.378 23.1623 118.219 22.6813C118.059 22.2003 118.002 21.6913 118.051 21.1869V21.1869ZM123.726 21.1869C123.726 19.5251 122.979 18.5533 121.669 18.5533C120.354 18.5533 119.614 19.5251 119.614 21.1869C119.614 22.862 120.354 23.8264 121.669 23.8264C122.979 23.8263 123.726 22.8554 123.726 21.1869H123.726Z" fill="white"/>
<path d="M126.876 22.8553C126.876 21.4753 127.903 20.6797 129.727 20.5667L131.804 20.447V19.7852C131.804 18.9755 131.269 18.5183 130.235 18.5183C129.39 18.5183 128.805 18.8284 128.637 19.3704H127.172C127.327 18.0536 128.565 17.209 130.304 17.209C132.226 17.209 133.31 18.1658 133.31 19.7852V25.0234H131.854V23.946H131.734C131.491 24.3325 131.15 24.6475 130.745 24.859C130.341 25.0705 129.887 25.1708 129.431 25.1497C129.11 25.1832 128.784 25.1488 128.477 25.0489C128.169 24.949 127.885 24.7856 127.645 24.5695C127.404 24.3533 127.211 24.0891 127.079 23.7938C126.946 23.4986 126.877 23.1789 126.876 22.8553V22.8553ZM131.804 22.2002V21.5593L129.932 21.679C128.876 21.7496 128.397 22.1088 128.397 22.7846C128.397 23.4746 128.996 23.8761 129.819 23.8761C130.06 23.9005 130.304 23.8762 130.535 23.8045C130.767 23.7329 130.982 23.6154 131.167 23.459C131.352 23.3026 131.504 23.1106 131.613 22.8944C131.723 22.6781 131.788 22.442 131.804 22.2002V22.2002Z" fill="white"/>
<path d="M135.299 21.1869C135.299 18.7645 136.545 17.2298 138.482 17.2298C138.961 17.2078 139.436 17.3225 139.853 17.5607C140.269 17.7989 140.609 18.1506 140.833 18.5748H140.946V14.3643H142.459V25.0234H141.009V23.8122H140.889C140.648 24.2336 140.296 24.5809 139.872 24.8167C139.448 25.0525 138.967 25.1677 138.482 25.1498C136.531 25.1499 135.299 23.6152 135.299 21.1869ZM136.862 21.1869C136.862 22.813 137.629 23.7915 138.911 23.7915C140.186 23.7915 140.974 22.7989 140.974 21.1936C140.974 19.5958 140.178 18.589 138.911 18.589C137.637 18.589 136.862 19.5742 136.862 21.1869H136.862Z" fill="white"/>
<path d="M148.718 21.187C148.67 20.6832 148.727 20.1749 148.887 19.6946C149.047 19.2144 149.305 18.7729 149.646 18.3983C149.986 18.0238 150.401 17.7246 150.864 17.5198C151.327 17.315 151.827 17.2092 152.333 17.2092C152.839 17.2092 153.34 17.315 153.803 17.5198C154.266 17.7246 154.68 18.0238 155.021 18.3983C155.361 18.7729 155.62 19.2144 155.779 19.6946C155.939 20.1749 155.997 20.6832 155.949 21.187C155.998 21.6913 155.941 22.2004 155.781 22.6814C155.622 23.1624 155.364 23.6047 155.023 23.98C154.683 24.3553 154.268 24.6551 153.804 24.8604C153.341 25.0656 152.84 25.1716 152.333 25.1716C151.826 25.1716 151.325 25.0656 150.862 24.8604C150.399 24.6551 149.984 24.3553 149.643 23.98C149.303 23.6047 149.044 23.1624 148.885 22.6814C148.726 22.2004 148.669 21.6913 148.718 21.187V21.187ZM154.392 21.187C154.392 19.5252 153.646 18.5534 152.336 18.5534C151.021 18.5534 150.281 19.5252 150.281 21.187C150.281 22.8621 151.021 23.8265 152.336 23.8265C153.646 23.8264 154.392 22.8555 154.392 21.187Z" fill="white"/>
<path d="M157.979 17.3571H159.435V18.5749H159.549C159.74 18.1375 160.064 17.7709 160.474 17.526C160.884 17.2812 161.36 17.1704 161.836 17.2091C162.209 17.181 162.584 17.2373 162.932 17.3737C163.281 17.51 163.594 17.723 163.849 17.9969C164.103 18.2707 164.293 18.5984 164.404 18.9556C164.515 19.3128 164.545 19.6905 164.49 20.0605V25.0234H162.977V20.4404C162.977 19.2084 162.442 18.5957 161.323 18.5957C161.069 18.5839 160.816 18.627 160.581 18.7221C160.346 18.8172 160.135 18.9619 159.961 19.1464C159.787 19.331 159.655 19.5509 159.574 19.7912C159.493 20.0315 159.465 20.2864 159.492 20.5385V25.0235H157.979V17.3571Z" fill="white"/>
<path d="M173.039 15.4484V17.392H174.7V18.6664H173.039V22.6085C173.039 23.4116 173.37 23.7632 174.123 23.7632C174.316 23.7626 174.509 23.7509 174.7 23.7283V24.9886C174.429 25.0372 174.153 25.063 173.877 25.0659C172.195 25.0659 171.525 24.474 171.525 22.9959V18.6663H170.308V17.3919H171.525V15.4484H173.039Z" fill="white"/>
<path d="M176.767 14.3643H178.267V18.589H178.386C178.588 18.1475 178.92 17.7788 179.338 17.533C179.757 17.2873 180.241 17.1764 180.724 17.2157C181.095 17.1955 181.466 17.2575 181.811 17.3971C182.155 17.5368 182.464 17.7508 182.716 18.0238C182.969 18.2967 183.157 18.622 183.269 18.9764C183.381 19.3307 183.414 19.7054 183.364 20.0738V25.0234H181.85V20.447C181.85 19.2225 181.279 18.6023 180.21 18.6023C179.95 18.581 179.689 18.6167 179.444 18.7071C179.199 18.7974 178.977 18.9401 178.793 19.1252C178.609 19.3104 178.468 19.5334 178.38 19.7788C178.291 20.0242 178.257 20.286 178.28 20.5459V25.0234H176.767L176.767 14.3643Z" fill="white"/>
<path d="M192.186 22.9535C191.98 23.6542 191.535 24.2603 190.927 24.6657C190.32 25.0712 189.59 25.2502 188.864 25.1715C188.359 25.1848 187.857 25.0881 187.393 24.888C186.929 24.6879 186.514 24.3892 186.177 24.0127C185.84 23.6362 185.589 23.1909 185.441 22.7077C185.294 22.2245 185.253 21.7149 185.322 21.2144C185.255 20.7124 185.296 20.2017 185.444 19.717C185.591 19.2324 185.841 18.785 186.176 18.4052C186.511 18.0254 186.924 17.7221 187.386 17.5157C187.849 17.3094 188.35 17.2048 188.857 17.2091C190.99 17.2091 192.277 18.6665 192.277 21.0739V21.6018H186.864V21.6866C186.84 21.9679 186.875 22.2511 186.967 22.518C187.059 22.7849 187.206 23.0295 187.399 23.2363C187.591 23.4431 187.824 23.6074 188.084 23.7188C188.343 23.8301 188.623 23.886 188.905 23.8829C189.267 23.9263 189.634 23.8612 189.959 23.6957C190.283 23.5302 190.552 23.2718 190.729 22.9535L192.186 22.9535ZM186.863 20.4828H190.736C190.755 20.2255 190.72 19.9671 190.633 19.7241C190.546 19.4811 190.41 19.259 190.232 19.0719C190.054 18.8849 189.839 18.7371 189.601 18.6381C189.363 18.539 189.107 18.4909 188.849 18.4968C188.587 18.4935 188.327 18.5427 188.085 18.6413C187.842 18.74 187.622 18.8862 187.437 19.0712C187.252 19.2563 187.106 19.4766 187.008 19.719C186.909 19.9615 186.86 20.2212 186.864 20.4828H186.863Z" fill="white"/>
</g>
<defs>
<clipPath id="clip0_0_614">
<rect width="229.843" height="68.1017" fill="white" transform="translate(0.157227)"/>
</clipPath>
</defs>
</svg>
