<svg width="24" height="24" viewBox="0 0 24 24" fill="none" xmlns="http://www.w3.org/2000/svg">
<path d="M16.9092 12.5722C16.9181 11.8823 17.1013 11.2058 17.4419 10.6058C17.7825 10.0057 18.2693 9.50152 18.8571 9.14016C18.4837 8.60687 17.9911 8.16799 17.4184 7.85839C16.8457 7.54878 16.2087 7.37698 15.558 7.35662C14.17 7.21092 12.8243 8.18721 12.117 8.18721C11.396 8.18721 10.3069 7.37109 9.13419 7.39521C8.37564 7.41972 7.63637 7.6403 6.98842 8.03547C6.34047 8.43063 5.80593 8.9869 5.43688 9.65007C3.83823 12.4179 5.03068 16.4856 6.56204 18.7229C7.32822 19.8184 8.22366 21.0422 9.39532 20.9988C10.5419 20.9512 10.9701 20.2677 12.354 20.2677C13.7252 20.2677 14.1269 20.9988 15.3224 20.9712C16.5527 20.9512 17.3278 19.8708 18.0671 18.7649C18.6176 17.9843 19.0412 17.1215 19.3222 16.2086C18.6075 15.9063 17.9975 15.4003 17.5684 14.7536C17.1393 14.107 16.91 13.3483 16.9092 12.5722V12.5722Z" fill="#121212"/>
<path d="M14.6514 5.88534C15.3222 5.08006 15.6527 4.04501 15.5726 3C14.5478 3.10764 13.6011 3.59745 12.9213 4.37183C12.5888 4.75014 12.3343 5.19025 12.172 5.66701C12.0098 6.14376 11.9432 6.64782 11.9759 7.15035C12.4885 7.15563 12.9956 7.04453 13.459 6.82541C13.9225 6.60628 14.3302 6.28486 14.6514 5.88534Z" fill="#121212"/>
</svg>
