<svg width="230" height="69" viewBox="0 0 230 69" fill="none" xmlns="http://www.w3.org/2000/svg">
<g clip-path="url(#clip0_0_615)">
<path d="M221.33 0H8.51315C3.81174 0 0.000488281 3.81125 0.000488281 8.51267V59.5887C0.000488281 64.2901 3.81174 68.1013 8.51315 68.1013H221.33C226.031 68.1013 229.842 64.2901 229.842 59.5887V8.51267C229.842 3.81125 226.031 0 221.33 0Z" fill="#222222"/>
<path d="M221.33 1.36217C223.226 1.36436 225.043 2.11849 226.384 3.4591C227.724 4.79971 228.478 6.61732 228.48 8.51315V59.5891C228.478 61.485 227.724 63.3026 226.384 64.6432C225.043 65.9838 223.226 66.7379 221.33 66.7401H8.51315C6.6173 66.7379 4.79972 65.9838 3.45918 64.6432C2.11864 63.3026 1.36461 61.485 1.36251 59.5891V8.51315C1.36458 6.61729 2.1186 4.79966 3.45915 3.45905C4.7997 2.11844 6.61729 1.36433 8.51315 1.36217H221.33ZM221.33 0.000488281H8.51315C6.25749 0.00709087 4.09609 0.906079 2.50108 2.50108C0.906079 4.09609 0.00709087 6.25749 0.000488281 8.51315L0.000488281 59.5891C0.00709087 61.8448 0.906079 64.0062 2.50108 65.6012C4.09609 67.1962 6.25749 68.0952 8.51315 68.1018H221.33C223.585 68.0952 225.747 67.1962 227.342 65.6012C228.937 64.0062 229.836 61.8448 229.842 59.5891V8.51315C229.836 6.25749 228.937 4.09609 227.342 2.50108C225.747 0.906079 223.585 0.00709087 221.33 0.000488281V0.000488281Z" fill="#909090"/>
<path d="M80.7316 17.4396C80.7626 18.0643 80.666 18.6888 80.4479 19.2751C80.2298 19.8613 79.8947 20.397 79.4629 20.8496C78.979 21.3514 78.3946 21.7455 77.748 22.0059C77.1013 22.2663 76.407 22.3873 75.7103 22.3609C75.0093 22.3672 74.314 22.2333 73.6654 21.967C73.0169 21.7008 72.4281 21.3075 71.9336 20.8105C71.4392 20.3134 71.0491 19.7225 70.7864 19.0725C70.5236 18.4225 70.3933 17.7266 70.4034 17.0255C70.3934 16.3245 70.5237 15.6285 70.7865 14.9785C71.0493 14.3285 71.4394 13.7376 71.9338 13.2405C72.4282 12.7434 73.0169 12.3501 73.6655 12.0837C74.314 11.8173 75.0092 11.6832 75.7103 11.6893C76.4312 11.6871 77.1448 11.8328 77.807 12.1175C78.4221 12.3668 78.9695 12.7579 79.4048 13.2589L78.5069 14.1574C78.1647 13.7547 77.7346 13.436 77.2497 13.2258C76.7649 13.0157 76.2382 12.9197 75.7103 12.9454C75.179 12.9427 74.6526 13.0472 74.1626 13.2527C73.6726 13.4582 73.2292 13.7605 72.8588 14.1415C72.4884 14.5224 72.1987 14.9742 72.007 15.4698C71.8154 15.9653 71.7257 16.4945 71.7434 17.0255C71.7308 17.821 71.9546 18.6022 72.3865 19.2703C72.8184 19.9383 73.439 20.463 74.1696 20.7779C74.9001 21.0928 75.7077 21.1837 76.49 21.039C77.2722 20.8943 77.9939 20.5205 78.5634 19.9651C79.0876 19.4003 79.3915 18.666 79.4196 17.8959H75.7103V16.6689H80.6601C80.7069 16.9231 80.7308 17.1811 80.7316 17.4396V17.4396Z" fill="white" stroke="white" stroke-width="0.380569" stroke-miterlimit="10"/>
<path d="M88.579 13.1731H83.927V16.4119H88.1219V17.639H83.927V20.8778H88.579V22.133H82.6152V11.9178H88.579V13.1731Z" fill="white" stroke="white" stroke-width="0.380569" stroke-miterlimit="10"/>
<path d="M94.1149 22.133H92.8013V13.1731H89.9482V11.9178H96.968V13.1731H94.1149V22.133Z" fill="white" stroke="white" stroke-width="0.380569" stroke-miterlimit="10"/>
<path d="M102.047 22.133V11.9178H103.359V22.133H102.047Z" fill="white" stroke="white" stroke-width="0.380569" stroke-miterlimit="10"/>
<path d="M109.181 22.133H107.868V13.1731H105.015V11.9178H112.034V13.1731H109.181V22.133Z" fill="white" stroke="white" stroke-width="0.380569" stroke-miterlimit="10"/>
<path d="M125.323 20.813C124.329 21.8043 122.982 22.361 121.578 22.361C120.174 22.361 118.827 21.8043 117.833 20.813C117.341 20.3148 116.954 19.7228 116.696 19.0721C116.437 18.4215 116.312 17.7255 116.328 17.0256C116.312 16.3256 116.437 15.6297 116.696 14.979C116.954 14.3284 117.341 13.7363 117.833 13.2381C118.324 12.7465 118.908 12.3567 119.55 12.091C120.192 11.8252 120.881 11.6887 121.576 11.6893C122.271 11.6899 122.959 11.8277 123.601 12.0946C124.243 12.3615 124.826 12.7523 125.316 13.2448C125.808 13.7417 126.196 14.3324 126.455 14.9818C126.715 15.6313 126.842 16.3263 126.828 17.0256C126.843 17.7255 126.718 18.4213 126.459 19.0719C126.201 19.7225 125.814 20.3146 125.323 20.813V20.813ZM118.802 19.9577C119.538 20.6928 120.536 21.1057 121.577 21.1057C122.617 21.1057 123.615 20.6928 124.352 19.9577C124.729 19.5711 125.025 19.1119 125.22 18.608C125.415 18.104 125.506 17.5657 125.487 17.0256C125.506 16.4855 125.415 15.9472 125.22 15.4432C125.025 14.9393 124.729 14.4801 124.352 14.0935C123.615 13.3583 122.617 12.9454 121.577 12.9454C120.536 12.9454 119.538 13.3583 118.802 14.0935C118.425 14.4804 118.13 14.9396 117.935 15.4436C117.74 15.9475 117.649 16.4856 117.668 17.0256C117.649 17.5655 117.74 18.1037 117.935 18.6076C118.13 19.1115 118.425 19.5708 118.802 19.9577V19.9577Z" fill="white" stroke="white" stroke-width="0.380569" stroke-miterlimit="10"/>
<path d="M128.669 22.133V11.9178H130.267L135.232 19.8644H135.288L135.232 17.8958V11.9178H136.545V22.133H135.175L129.981 13.8015H129.925L129.981 15.7702V22.133H128.669Z" fill="white" stroke="white" stroke-width="0.380569" stroke-miterlimit="10"/>
<path d="M116.004 37.0329C114.573 37.0383 113.176 37.4676 111.989 38.2666C110.801 39.0655 109.878 40.1984 109.334 41.522C108.79 42.8456 108.65 44.3007 108.933 45.7036C109.215 47.1064 109.907 48.3941 110.921 49.404C111.935 50.414 113.225 51.1009 114.629 51.3781C116.033 51.6552 117.487 51.5102 118.809 50.9613C120.131 50.4125 121.26 49.4843 122.054 48.2941C122.849 47.1039 123.273 45.7049 123.273 44.2739C123.287 43.3168 123.108 42.3666 122.747 41.4799C122.387 40.5932 121.852 39.7882 121.173 39.1126C120.495 38.437 119.688 37.9047 118.8 37.5475C117.912 37.1902 116.961 37.0152 116.004 37.0329V37.0329ZM116.004 48.6626C115.123 48.7254 114.243 48.5214 113.479 48.0773C112.716 47.6331 112.103 46.9693 111.722 46.1722C111.341 45.3752 111.208 44.4818 111.342 43.6085C111.476 42.7351 111.869 41.9223 112.471 41.2757C113.073 40.6291 113.856 40.1788 114.718 39.9833C115.58 39.7879 116.48 39.8564 117.302 40.1799C118.124 40.5034 118.83 41.067 119.327 41.7972C119.825 42.5274 120.091 43.3904 120.091 44.2739C120.118 44.8321 120.032 45.39 119.84 45.9147C119.648 46.4394 119.353 46.9204 118.972 47.3294C118.591 47.7383 118.133 48.0669 117.623 48.2959C117.113 48.5249 116.563 48.6495 116.004 48.6626V48.6626ZM100.148 37.0329C98.7167 37.0383 97.3194 37.4675 96.1321 38.2665C94.9449 39.0654 94.0211 40.1982 93.4772 41.5219C92.9333 42.8455 92.7938 44.3006 93.0763 45.7034C93.3588 47.1063 94.0506 48.394 95.0644 49.404C96.0781 50.4139 97.3684 51.1009 98.7724 51.3781C100.176 51.6552 101.631 51.5102 102.952 50.9614C104.274 50.4125 105.403 49.4843 106.198 48.2941C106.992 47.1039 107.416 45.7049 107.416 44.2739C107.43 43.3168 107.252 42.3667 106.891 41.48C106.53 40.5933 105.995 39.7882 105.317 39.1126C104.639 38.4371 103.832 37.9048 102.944 37.5475C102.056 37.1902 101.105 37.0152 100.148 37.0329V37.0329ZM100.148 48.6626C99.2664 48.7254 98.3866 48.5214 97.6229 48.0773C96.8592 47.6331 96.2468 46.9693 95.8657 46.1722C95.4845 45.3752 95.3521 44.4818 95.4857 43.6085C95.6194 42.7351 96.0129 41.9223 96.615 41.2757C97.2171 40.6291 97.9999 40.1788 98.8615 39.9833C99.7231 39.7879 100.624 39.8564 101.446 40.1799C102.268 40.5034 102.974 41.067 103.471 41.7972C103.968 42.5274 104.234 43.3904 104.234 44.2739C104.261 44.8321 104.176 45.39 103.984 45.9147C103.792 46.4395 103.497 46.9205 103.116 47.3294C102.735 47.7383 102.276 48.067 101.766 48.2959C101.257 48.5249 100.706 48.6495 100.148 48.6626ZM81.2857 39.2547V42.3266H88.6367C88.5306 43.7674 87.941 45.1302 86.9634 46.194C86.2268 46.9449 85.3409 47.533 84.3629 47.9204C83.385 48.3078 82.3367 48.4858 81.2857 48.4431C79.137 48.414 77.0863 47.54 75.5771 46.0103C74.068 44.4806 73.2219 42.4182 73.2219 40.2694C73.2219 38.1206 74.068 36.0582 75.5771 34.5285C77.0863 32.9988 79.137 32.1248 81.2857 32.0957C83.3495 32.0687 85.3406 32.8573 86.8264 34.2899L88.9932 32.1231C87.9794 31.1195 86.7755 30.3284 85.452 29.7961C84.1285 29.2639 82.712 29.0013 81.2857 29.0237C79.7951 29.002 78.315 29.2768 76.9316 29.8322C75.5482 30.3876 74.289 31.2125 73.2272 32.2589C72.1655 33.3054 71.3223 34.5524 70.7469 35.9276C70.1714 37.3028 69.875 38.7787 69.875 40.2694C69.875 41.7601 70.1714 43.236 70.7469 44.6112C71.3223 45.9864 72.1655 47.2334 73.2272 48.2799C74.289 49.3263 75.5482 50.1512 76.9316 50.7066C78.315 51.262 79.7951 51.5368 81.2857 51.5151C82.7421 51.5755 84.1948 51.3255 85.5472 50.7817C86.8997 50.2379 88.121 49.4127 89.1303 48.3609C90.922 46.4051 91.8771 43.8257 91.791 41.1746C91.798 40.5308 91.7428 39.8879 91.6262 39.2547H81.2857ZM158.425 41.6408C157.989 40.3292 157.161 39.1834 156.052 38.359C154.943 37.5346 153.607 37.0716 152.226 37.0329C151.295 37.0387 150.376 37.233 149.523 37.6043C148.669 37.9755 147.9 38.5158 147.262 39.1927C146.624 39.8695 146.129 40.6688 145.809 41.5421C145.488 42.4155 145.347 43.3448 145.396 44.2739C145.375 45.226 145.546 46.1724 145.899 47.0568C146.252 47.9412 146.78 48.7454 147.451 49.4213C148.122 50.0972 148.922 50.631 149.803 50.9908C150.685 51.3505 151.63 51.5289 152.582 51.5151C153.775 51.5218 154.951 51.232 156.004 50.6719C157.057 50.1117 157.955 49.2988 158.616 48.306L156.148 46.6604C155.778 47.2745 155.255 47.782 154.63 48.133C154.005 48.484 153.299 48.6665 152.582 48.6626C151.845 48.6908 151.115 48.4967 150.489 48.1054C149.863 47.7141 149.369 47.1438 149.071 46.4683L158.754 42.4638L158.425 41.6408ZM148.55 44.0546C148.516 43.5276 148.588 42.9991 148.76 42.5C148.933 42.0008 149.203 41.5412 149.556 41.1478C149.908 40.7545 150.336 40.4354 150.813 40.2092C151.29 39.9831 151.808 39.8544 152.335 39.8307C152.885 39.7945 153.433 39.9209 153.911 40.194C154.389 40.4672 154.776 40.875 155.023 41.3667L148.55 44.0546ZM140.678 51.0762H143.86V29.7918H140.678V51.0762ZM135.467 38.6511H135.357C134.873 38.1256 134.283 37.7094 133.626 37.4303C132.968 37.1512 132.259 37.0157 131.544 37.0329C129.677 37.1123 127.913 37.91 126.62 39.2593C125.327 40.6085 124.605 42.4052 124.605 44.274C124.605 46.1429 125.327 47.9395 126.62 49.2888C127.913 50.638 129.677 51.4357 131.544 51.5151C132.261 51.5342 132.974 51.3969 133.632 51.1127C134.291 50.8285 134.879 50.4042 135.357 49.8695H135.467V50.9118C135.467 53.6821 133.986 55.1632 131.599 55.1632C130.804 55.1441 130.032 54.8887 129.383 54.4296C128.733 53.9704 128.235 53.3282 127.951 52.5848L125.181 53.737C125.703 55.0082 126.593 56.0946 127.736 56.8569C128.88 57.6192 130.225 58.0227 131.599 58.0158C135.33 58.0158 138.484 55.8215 138.484 50.4729V37.4716H135.467V38.6511ZM131.819 48.6626C130.719 48.5693 129.695 48.0666 128.948 47.2538C128.201 46.4411 127.787 45.3777 127.787 44.274C127.787 43.1703 128.201 42.1069 128.948 41.2942C129.695 40.4815 130.719 39.9787 131.819 39.8855C132.366 39.9122 132.902 40.0488 133.395 40.2871C133.889 40.5255 134.329 40.8607 134.69 41.2727C135.051 41.6848 135.325 42.1654 135.496 42.6857C135.667 43.206 135.732 43.7555 135.686 44.3013C135.729 44.8438 135.662 45.3894 135.489 45.9053C135.316 46.4213 135.041 46.8971 134.68 47.3042C134.319 47.7114 133.879 48.0415 133.388 48.2749C132.896 48.5083 132.363 48.6401 131.819 48.6626V48.6626ZM173.328 29.7922H165.716V51.0762H168.892V43.0124H173.328C174.227 43.0616 175.126 42.9272 175.971 42.6172C176.816 42.3073 177.588 41.8284 178.242 41.2097C178.895 40.5911 179.416 39.8457 179.772 39.0191C180.127 38.1926 180.311 37.3021 180.311 36.4023C180.311 35.5024 180.127 34.612 179.772 33.7854C179.416 32.9588 178.895 32.2134 178.242 31.5948C177.588 30.9762 176.816 30.4972 175.971 30.1873C175.126 29.8774 174.227 29.7429 173.328 29.7922V29.7922ZM173.41 40.0503H168.892V32.7544H173.41C173.896 32.7444 174.378 32.8313 174.83 33.0101C175.281 33.1889 175.692 33.456 176.039 33.7957C176.386 34.1355 176.662 34.541 176.85 34.9886C177.038 35.4362 177.135 35.9168 177.135 36.4024C177.135 36.8879 177.038 37.3685 176.85 37.8161C176.662 38.2637 176.386 38.6692 176.039 39.009C175.692 39.3487 175.281 39.6158 174.83 39.7946C174.378 39.9734 173.896 40.0603 173.41 40.0503V40.0503ZM193.044 36.9937C191.884 36.926 190.73 37.1983 189.723 37.7771C188.716 38.356 187.9 39.2162 187.375 40.2522L190.196 41.4297C190.475 40.9155 190.899 40.494 191.414 40.2167C191.93 39.9395 192.515 39.8186 193.098 39.8688C193.904 39.7901 194.708 40.0342 195.334 40.5474C195.961 41.0607 196.358 41.8014 196.439 42.607V42.8261C195.419 42.2841 194.281 42.002 193.126 42.0046C190.086 42.0046 186.992 43.675 186.992 46.7966C187.022 47.4544 187.183 48.0997 187.467 48.694C187.75 49.2883 188.15 49.8196 188.643 50.2563C189.136 50.693 189.712 51.0263 190.336 51.2363C190.96 51.4463 191.62 51.5288 192.277 51.4789C193.077 51.526 193.874 51.3577 194.587 50.9917C195.3 50.6257 195.902 50.0754 196.329 49.3979H196.439V51.0408H199.506V42.8809C199.506 39.1021 196.685 36.9937 193.044 36.9937V36.9937ZM192.66 48.6585C191.62 48.6585 190.168 48.1383 190.168 46.8512C190.168 45.2085 191.976 44.5785 193.536 44.5785C194.55 44.5515 195.553 44.7974 196.439 45.2905C196.322 46.2137 195.875 47.0634 195.181 47.6825C194.486 48.3017 193.591 48.6483 192.66 48.6585V48.6585ZM210.678 37.4592L207.036 46.6869H206.926L203.148 37.4592H199.725L205.393 50.3562L202.162 57.5304H205.475L214.21 37.4592H210.678ZM182.063 51.0762H185.239V29.7922H182.063V51.0762Z" fill="white"/>
<path d="M17.7668 12.8338C17.2085 13.5013 16.9266 14.3571 16.9788 15.2257V52.8791C16.9264 53.7477 17.2084 54.6035 17.7668 55.271L17.8928 55.3937L38.9854 34.3012V33.8036L17.8928 12.7102L17.7668 12.8338Z" fill="url(#paint0_linear_0_615)"/>
<path d="M46.0158 41.3351L38.9854 34.3013V33.8036L46.0175 26.7715L46.176 26.8619L54.5061 31.5951C56.8856 32.9469 56.8856 35.1588 54.5061 36.5115L46.176 41.2447L46.0158 41.3351Z" fill="url(#paint1_linear_0_615)"/>
<path d="M46.1764 41.2439L38.9858 34.0526L17.7671 55.2711C18.2519 55.6987 18.8711 55.9432 19.5172 55.9623C20.1634 55.9814 20.7959 55.7739 21.3051 55.3756L46.1764 41.2439Z" fill="url(#paint2_linear_0_615)"/>
<path d="M46.1764 26.861L21.3051 12.7293C20.7959 12.331 20.1634 12.1235 19.5172 12.1426C18.8711 12.1617 18.2519 12.4062 17.7671 12.8338L38.9858 34.0525L46.1764 26.861Z" fill="url(#paint3_linear_0_615)"/>
<path opacity="0.2" d="M46.0179 41.0856L21.3051 55.1269C20.8155 55.4996 20.2179 55.703 19.6026 55.7063C18.9872 55.7095 18.3875 55.5126 17.8939 55.1451L17.7671 55.2719L17.8931 55.3947L17.8939 55.3938C18.3874 55.7615 18.9872 55.9586 19.6026 55.9553C20.218 55.952 20.8156 55.7485 21.3051 55.3756L46.1764 41.2439L46.0179 41.0856Z" fill="#222222"/>
<path opacity="0.12" d="M17.7667 55.0232C17.2085 54.3557 16.9266 53.5 16.9788 52.6313V52.8801C16.9266 53.7487 17.2085 54.6044 17.7667 55.272L17.8936 55.1451L17.7667 55.0232Z" fill="#222222"/>
<path opacity="0.12" d="M54.5067 36.262L46.0181 41.0857L46.1766 41.244L54.5067 36.5108C54.9967 36.2981 55.4208 35.958 55.7347 35.5258C56.0486 35.0936 56.2409 34.5851 56.2915 34.0533C56.1862 34.5349 55.97 34.9853 55.6602 35.3687C55.3504 35.7521 54.9554 36.058 54.5067 36.262V36.262Z" fill="#222222"/>
<path opacity="0.25" d="M21.3055 12.9789L54.5069 31.843C54.9558 32.0471 55.3509 32.353 55.6607 32.7366C55.9705 33.1202 56.1866 33.5708 56.2917 34.0526C56.2414 33.5206 56.0492 33.0119 55.7353 32.5795C55.4214 32.1471 54.9972 31.8068 54.5069 31.5943L21.3055 12.7302C18.926 11.3782 16.9795 12.5012 16.9795 15.2266V15.4754C16.9795 12.7501 18.926 11.6271 21.3055 12.9789Z" fill="white"/>
</g>
<defs>
<linearGradient id="paint0_linear_0_615" x1="37.1149" y1="14.8287" x2="8.54233" y2="43.4013" gradientUnits="userSpaceOnUse">
<stop stop-color="#00A0FF"/>
<stop offset="0.00657" stop-color="#00A1FF"/>
<stop offset="0.2601" stop-color="#00BEFF"/>
<stop offset="0.5122" stop-color="#00D2FF"/>
<stop offset="0.7604" stop-color="#00DFFF"/>
<stop offset="1" stop-color="#00E3FF"/>
</linearGradient>
<linearGradient id="paint1_linear_0_615" x1="57.6042" y1="34.0533" x2="16.4082" y2="34.0533" gradientUnits="userSpaceOnUse">
<stop stop-color="#FFE000"/>
<stop offset="0.4087" stop-color="#FFBD00"/>
<stop offset="0.7754" stop-color="#FFA500"/>
<stop offset="1" stop-color="#FF9C00"/>
</linearGradient>
<linearGradient id="paint2_linear_0_615" x1="42.2692" y1="37.9601" x2="3.52246" y2="76.7068" gradientUnits="userSpaceOnUse">
<stop stop-color="#FF3A44"/>
<stop offset="1" stop-color="#C31162"/>
</linearGradient>
<linearGradient id="paint3_linear_0_615" x1="12.4244" y1="0.300049" x2="29.7265" y2="17.6021" gradientUnits="userSpaceOnUse">
<stop stop-color="#32A071"/>
<stop offset="0.0685" stop-color="#2DA771"/>
<stop offset="0.4762" stop-color="#15CF74"/>
<stop offset="0.8009" stop-color="#06E775"/>
<stop offset="1" stop-color="#00F076"/>
</linearGradient>
<clipPath id="clip0_0_615">
<rect width="229.842" height="68.1017" fill="white" transform="translate(0.000488281)"/>
</clipPath>
</defs>
</svg>
