<svg width="24" height="24" viewBox="0 0 24 24" fill="none" xmlns="http://www.w3.org/2000/svg">
<path fill-rule="evenodd" clip-rule="evenodd" d="M1.25 12C1.25 6.06279 6.06279 1.25 12 1.25C17.9372 1.25 22.75 6.06279 22.75 12C22.75 17.9372 17.9372 22.75 12 22.75C6.06279 22.75 1.25 17.9372 1.25 12ZM12 2.75C6.89121 2.75 2.75 6.89121 2.75 12C2.75 17.1088 6.89121 21.25 12 21.25C17.1088 21.25 21.25 17.1088 21.25 12C21.25 6.89121 17.1088 2.75 12 2.75Z" fill="#00B6AB"/>
<path fill-rule="evenodd" clip-rule="evenodd" d="M10.9999 2.04985C10.4026 1.59622 10.4024 1.59645 10.4023 1.5967L10.4008 1.59866L10.3978 1.60256L10.3888 1.61471C10.3813 1.62474 10.3711 1.63862 10.3584 1.65629C10.3328 1.69162 10.297 1.74214 10.2523 1.80738C10.1629 1.93783 10.0381 2.1273 9.88973 2.37206C9.59321 2.86133 9.20172 3.57314 8.8113 4.47761C8.42062 5.38268 8.02973 6.48371 7.73678 7.74985H2.62988C2.21567 7.74985 1.87988 8.08563 1.87988 8.49985C1.87988 8.91406 2.21567 9.24985 2.62988 9.24985H7.45258C7.32526 10.1099 7.24988 11.029 7.24988 11.9998C7.24988 12.9707 7.32526 13.8898 7.45258 14.7498H2.62988C2.21567 14.7498 1.87988 15.0856 1.87988 15.4998C1.87988 15.9141 2.21567 16.2498 2.62988 16.2498H7.73678C8.02973 17.516 8.42062 18.617 8.8113 19.5221C9.20172 20.4266 9.59321 21.1384 9.88973 21.6276C10.0381 21.8724 10.1629 22.0619 10.2523 22.1923C10.297 22.2575 10.3328 22.3081 10.3584 22.3434C10.3711 22.3611 10.3813 22.375 10.3888 22.385L10.3978 22.3971L10.4008 22.401L10.4023 22.403C10.4024 22.4032 10.4026 22.4035 10.9774 21.9669L10.4026 22.4035C10.6531 22.7333 11.1236 22.7976 11.4535 22.5471C11.7832 22.2967 11.8476 21.8265 11.5974 21.4966L11.5938 21.4917C11.5899 21.4864 11.5832 21.4774 11.574 21.4646C11.5556 21.4392 11.527 21.399 11.4897 21.3445C11.415 21.2355 11.3054 21.0695 11.1725 20.8502C10.9066 20.4113 10.548 19.7606 10.1885 18.9276C9.8634 18.1745 9.53849 17.2749 9.27992 16.2498H14.7198C14.4613 17.2749 14.1364 18.1745 13.8113 18.9276C13.4517 19.7606 13.0932 20.4113 12.8272 20.8502C12.6943 21.0695 12.5848 21.2355 12.5101 21.3445C12.4727 21.399 12.4442 21.4392 12.4258 21.4646C12.4166 21.4774 12.4099 21.4864 12.406 21.4917L12.4026 21.4962C12.4026 21.4963 12.4022 21.4968 12.4022 21.4968C12.4021 21.497 12.4023 21.4967 12.4022 21.4968C12.1525 21.8266 12.2167 22.2968 12.5463 22.5471C12.8761 22.7976 13.3466 22.7333 13.5971 22.4035L12.9999 21.9498C13.5971 22.4035 13.5973 22.4032 13.5975 22.403L13.599 22.401L13.6019 22.3971L13.611 22.385C13.6184 22.375 13.6286 22.3611 13.6414 22.3434C13.6669 22.3081 13.7028 22.2575 13.7475 22.1923C13.8369 22.0619 13.9617 21.8724 14.11 21.6276C14.4066 21.1384 14.798 20.4266 15.1885 19.5221C15.5791 18.617 15.97 17.516 16.263 16.2498H21.3699C21.7841 16.2498 22.1199 15.9141 22.1199 15.4998C22.1199 15.0856 21.7841 14.7498 21.3699 14.7498H16.5472C16.6745 13.8898 16.7499 12.9707 16.7499 11.9998C16.7499 11.029 16.6745 10.1099 16.5472 9.24985H21.3699C21.7841 9.24985 22.1199 8.91406 22.1199 8.49985C22.1199 8.08563 21.7841 7.74985 21.3699 7.74985H16.263C15.97 6.48371 15.5791 5.38268 15.1885 4.47761C14.798 3.57314 14.4066 2.86133 14.11 2.37206C13.9617 2.1273 13.8369 1.93783 13.7475 1.80738C13.7028 1.74214 13.6669 1.69162 13.6414 1.65629C13.6286 1.63862 13.6184 1.62474 13.611 1.61471L13.6019 1.60256L13.599 1.59866L13.5979 1.59726L13.5975 1.5967C13.5973 1.59645 13.5971 1.59622 12.9999 2.04985L13.5971 1.59622C13.3466 1.26636 12.8761 1.20205 12.5463 1.45258C12.2166 1.70294 12.1522 2.17298 12.4021 2.50281C12.402 2.50272 12.4022 2.5029 12.4021 2.50281L12.4026 2.50347L12.406 2.50801C12.4099 2.5133 12.4166 2.52233 12.4258 2.53506C12.4442 2.56051 12.4727 2.60071 12.5101 2.6552C12.5848 2.7642 12.6943 2.93021 12.8272 3.14951C13.0932 3.58836 13.4517 4.23906 13.8113 5.07208C14.1364 5.82517 14.4613 6.72479 14.7198 7.74985H9.27992C9.53849 6.72479 9.8634 5.82517 10.1885 5.07208C10.548 4.23906 10.9066 3.58836 11.1725 3.14951C11.3054 2.93021 11.415 2.7642 11.4897 2.6552C11.527 2.60071 11.5556 2.56051 11.574 2.53506C11.5832 2.52233 11.5899 2.5133 11.5938 2.50801L11.5971 2.50347L11.5976 2.5029C11.5979 2.50252 11.598 2.50238 11.5979 2.50247C11.5979 2.5025 11.5979 2.50244 11.5979 2.50247C11.8478 2.17265 11.7831 1.70293 11.4535 1.45258C11.1236 1.20205 10.6531 1.26636 10.4026 1.59622L10.9999 2.04985ZM8.97038 9.24985C8.83275 10.1041 8.74988 11.0238 8.74988 11.9998C8.74988 12.9759 8.83275 13.8955 8.97038 14.7498H15.0294C15.167 13.8955 15.2499 12.9759 15.2499 11.9998C15.2499 11.0238 15.167 10.1041 15.0294 9.24985H8.97038Z" fill="#00B6AB"/>
</svg>
