<svg width="840" height="443" viewBox="0 0 840 443" fill="none" xmlns="http://www.w3.org/2000/svg">
<path d="M834.661 91.5747C830.321 85.934 823.584 81.5729 815.549 79.203C807.514 76.8331 798.655 76.5942 790.417 78.5254L509.391 144.003L509.391 29.0996C509.394 23.4609 507.216 17.945 503.124 13.2328C499.033 8.5206 493.209 4.81836 486.37 2.58311C479.531 0.347868 471.976 -0.322497 464.64 0.654708C457.303 1.63191 450.505 4.21393 445.085 8.08204L12.7903 316.069C6.51128 320.539 2.41734 326.487 1.1759 332.943C-0.0655475 339.399 1.61876 345.983 5.95409 351.622C10.2894 357.261 17.0203 361.622 25.0495 363.995C33.0787 366.367 41.9329 366.611 50.1689 364.687L331.271 299.152L331.271 414.055C331.268 419.694 333.447 425.21 337.538 429.922C341.629 434.634 347.453 438.336 354.292 440.571C361.132 442.807 368.686 443.477 376.022 442.5C383.359 441.523 390.157 438.941 395.577 435.073L827.872 127.143C834.16 122.675 838.263 116.726 839.51 110.266C840.757 103.806 839.074 97.2176 834.737 91.5747L834.661 91.5747Z" fill="#F4DE49"/>
</svg>
