<svg width="1119" height="591" viewBox="0 0 1119 591" fill="none" xmlns="http://www.w3.org/2000/svg">
<path d="M1112 122.517C1106.21 114.996 1097.23 109.181 1086.52 106.022C1075.8 102.862 1063.99 102.543 1053.01 105.118L678.308 192.422L678.308 39.2171C678.312 31.6989 675.407 24.3443 669.952 18.0613C664.497 11.7784 656.731 6.84208 647.612 3.8618C638.493 0.881449 628.421 -0.0124116 618.639 1.29057C608.857 2.59348 599.793 6.03617 592.566 11.1936L16.173 421.844C7.80091 427.803 2.34241 435.733 0.68714 444.341C-0.968134 452.95 1.27759 461.728 7.05799 469.247C12.8385 476.766 21.8129 482.58 32.5186 485.744C43.2242 488.907 55.0298 489.233 66.011 486.667L440.814 399.286L440.814 552.491C440.81 560.009 443.715 567.364 449.169 573.647C454.624 579.93 462.39 584.866 471.509 587.846C480.628 590.827 490.7 591.72 500.482 590.417C510.265 589.115 519.329 585.672 526.556 580.514L1102.95 169.941C1111.33 163.984 1116.8 156.052 1118.47 147.439C1120.13 138.826 1117.89 130.041 1112.1 122.517L1112 122.517Z" fill="#86ACDF"/>
</svg>
