<svg width="289" height="153" viewBox="0 0 289 153" fill="none" xmlns="http://www.w3.org/2000/svg">
<g clip-path="url(#clip0_0_661)">
<path d="M286.362 32.0631C284.873 30.1272 282.561 28.6304 279.803 27.817C277.045 27.0036 274.005 26.9217 271.177 27.5845L174.726 50.0571L174.726 10.6209C174.727 8.6857 173.979 6.79257 172.575 5.17528C171.171 3.558 169.172 2.28735 166.825 1.52019C164.477 0.75303 161.885 0.522949 159.367 0.858337C156.849 1.19372 154.516 2.0799 152.655 3.40748L4.28677 109.112C2.13172 110.646 0.726639 112.688 0.30056 114.903C-0.125519 117.119 0.452544 119.379 1.94049 121.314C3.42843 123.25 5.73851 124.747 8.49424 125.561C11.25 126.375 14.2888 126.459 17.1155 125.798L113.593 103.306L113.593 142.742C113.592 144.677 114.34 146.57 115.744 148.188C117.148 149.805 119.147 151.076 121.494 151.843C123.842 152.61 126.434 152.84 128.952 152.505C131.47 152.169 133.803 151.283 135.664 149.956L284.032 44.2705C286.191 42.7371 287.599 40.6953 288.027 38.4783C288.454 36.2612 287.877 33.9998 286.389 32.0631L286.362 32.0631Z" fill="#00B6AB"/>
</g>
<defs>
<clipPath id="clip0_0_661">
<rect width="288" height="151.946" fill="white" transform="translate(0.164551 0.708313)"/>
</clipPath>
</defs>
</svg>
