<svg width="248" height="48" viewBox="0 0 248 48" fill="none" xmlns="http://www.w3.org/2000/svg">
<g clip-path="url(#clip0_2_2614)">
<g clip-path="url(#clip1_2_2614)">
<path fill-rule="evenodd" clip-rule="evenodd" d="M26.2625 0.845704L16.0948 0.845703V4.38941H14.5841C10.3724 4.38941 6.9582 7.80362 6.9582 12.0153L6.95814 20.2751L10.5895 17.688L10.5896 12.0153C10.5896 9.80916 12.378 8.02076 14.5841 8.02076H27.768C29.9741 8.02076 31.7625 9.80916 31.7625 12.0153L31.7625 14.9981L35.3938 14.152L35.3939 12.0153C35.3939 7.80361 31.9796 4.38941 27.768 4.38941H26.2625V0.845704ZM10.5894 32.3188L6.95803 33.1654L6.95801 35.5537C6.95801 39.7653 10.3722 43.1795 14.5839 43.1795H27.7678C31.9794 43.1795 35.3937 39.7653 35.3937 35.5537L35.3937 27.0443L31.7624 29.631L31.7623 35.5537C31.7623 37.7598 29.9739 39.5482 27.7678 39.5482H14.5839C12.3778 39.5482 10.5894 37.7598 10.5894 35.5537L10.5894 32.3188Z" fill="#121212"/>
<path d="M40.9605 17.4501C40.7533 17.1808 40.4316 16.9726 40.048 16.8594C39.6643 16.7463 39.2413 16.7348 38.848 16.8271L25.4299 19.9534L25.4299 14.4671C25.4301 14.1979 25.326 13.9345 25.1307 13.7095C24.9354 13.4845 24.6573 13.3078 24.3307 13.201C24.0042 13.0943 23.6435 13.0623 23.2932 13.109C22.9429 13.1556 22.6183 13.2789 22.3595 13.4636L1.71877 28.169C1.41896 28.3825 1.22349 28.6664 1.16421 28.9747C1.10494 29.283 1.18536 29.5973 1.39236 29.8666C1.59935 30.1358 1.92073 30.344 2.3041 30.4573C2.68747 30.5706 3.11023 30.5823 3.50348 30.4904L16.9252 27.3613L16.9252 32.8475C16.9251 33.1168 17.0291 33.3801 17.2244 33.6051C17.4198 33.8301 17.6979 34.0069 18.0244 34.1136C18.351 34.2204 18.7117 34.2524 19.062 34.2057C19.4123 34.159 19.7369 34.0358 19.9957 33.8511L40.6364 19.1484C40.9366 18.9351 41.1325 18.651 41.192 18.3426C41.2516 18.0341 41.1713 17.7195 40.9642 17.4501L40.9605 17.4501Z" fill="#EDD747"/>
</g>
<path fill-rule="evenodd" clip-rule="evenodd" d="M92.4332 12.2816V16.0448C91.5374 16.0265 90.6469 16.187 89.8138 16.5169C88.9807 16.8468 88.2218 17.3395 87.5814 17.9662C86.941 18.5929 86.432 19.341 86.0841 20.1667C85.7362 20.9925 85.5564 21.8793 85.5553 22.7753V37.042H81.9788V12.9595H85.5553V15.6714C86.416 14.6742 87.4684 13.8602 88.6499 13.2778C89.8315 12.6955 91.1181 12.3567 92.4332 12.2816ZM74.5015 22.3233C74.4705 19.973 73.7452 17.6843 72.4169 15.7452C71.0886 13.806 69.2165 12.3029 67.0362 11.4248C64.8558 10.5468 62.4645 10.3331 60.163 10.8106C57.8615 11.2881 55.7526 12.4354 54.1015 14.1083C52.4503 15.7812 51.3307 17.905 50.8835 20.2126C50.4362 22.5201 50.6812 24.9084 51.5877 27.0771C52.4942 29.2457 54.0218 31.0979 55.9782 32.4007C57.9346 33.7035 60.2326 34.3988 62.5831 34.399C64.6995 34.4061 66.7793 33.8463 68.6062 32.7777L65.1869 28.5822L67.9675 26.3223L71.377 30.5179C73.4045 28.2719 74.519 25.349 74.5015 22.3233ZM62.5831 37.8183C59.0144 37.8072 55.5597 36.5608 52.806 34.2908C50.0523 32.0208 48.1697 28.8673 47.478 25.3662C46.7863 21.8652 47.3283 18.2327 49.0118 15.086C50.6953 11.9394 53.4165 9.47279 56.7128 8.10543C60.0092 6.73808 63.6773 6.55435 67.0938 7.58548C70.5103 8.61661 73.4643 10.799 75.4538 13.7616C77.4433 16.7243 78.3455 20.2845 78.0071 23.8371C77.6687 27.3897 76.1106 30.7156 73.5976 33.2494L77.6457 38.2408L74.8651 40.5007L70.7973 35.4798C68.3334 37.0158 65.4865 37.8263 62.5831 37.8183Z" fill="#121212"/>
<path fill-rule="evenodd" clip-rule="evenodd" d="M218.486 12.989V33.7897C218.437 36.8692 217.278 39.8274 215.221 42.1196C213.164 44.4118 210.348 45.8836 207.292 46.264C204.235 46.6444 201.145 45.9077 198.588 44.1896C196.032 42.4716 194.183 39.8879 193.381 36.9143H197.066C197.709 38.693 198.886 40.2298 200.435 41.3148C201.984 42.3998 203.831 42.9802 205.722 42.9767C206.922 42.9871 208.112 42.7596 209.223 42.3074C210.334 41.8551 211.345 41.1872 212.196 40.342C213.048 39.4969 213.723 38.4914 214.184 37.3836C214.644 36.2758 214.881 35.0877 214.88 33.888C213.115 35.7273 210.84 36.9965 208.349 37.5326C205.857 38.0686 203.262 37.8469 200.897 36.8959C198.532 35.945 196.506 34.3083 195.079 32.1963C193.652 30.0844 192.889 27.5938 192.889 25.045C192.889 22.4961 193.652 20.0055 195.079 17.8936C196.506 15.7817 198.532 14.145 200.897 13.194C203.262 12.2431 205.857 12.0213 208.349 12.5574C210.84 13.0934 213.115 14.3627 214.88 16.2019V12.989H218.486ZM120.269 16.8013C119.06 14.3939 117.069 12.4682 114.623 11.3391C112.177 10.21 109.42 9.94438 106.804 10.5857C104.187 11.227 101.866 12.7373 100.219 14.8695C98.5724 17.0017 97.698 19.6296 97.7389 22.3233C97.6747 25.0375 98.5399 27.6921 100.191 29.8472C101.842 32.0024 104.18 33.5286 106.818 34.173C109.455 34.8175 112.233 34.5414 114.692 33.3905C117.151 32.2397 119.143 30.2832 120.338 27.8453H124.199C122.908 31.2299 120.472 34.0553 117.314 35.8304C114.157 37.6055 110.477 38.2181 106.914 37.5618C103.352 36.9054 100.132 35.0216 97.8137 32.2377C95.4959 29.4538 94.2267 25.9458 94.2267 22.3233C94.2267 18.7008 95.4959 15.1927 97.8137 12.4088C100.132 9.62494 103.352 7.74113 106.914 7.08479C110.477 6.42844 114.157 7.04105 117.314 8.81615C120.472 10.5912 122.908 13.4166 124.199 16.8013H120.269ZM234.983 12.2914C238.37 12.2914 241.619 13.6371 244.015 16.0326C246.41 18.428 247.756 21.6769 247.756 25.0646C247.759 25.6565 247.716 26.2478 247.628 26.8332H226.012C226.37 28.6768 227.284 30.3666 228.631 31.6754C229.978 32.9841 231.694 33.8491 233.547 34.154C235.4 34.459 237.302 34.1892 238.997 33.3811C240.693 32.573 242.1 31.2652 243.03 29.6335H246.96C246.132 31.8121 244.723 33.7225 242.887 35.1578C241.051 36.5932 238.856 37.4987 236.542 37.7763C234.228 38.054 231.882 37.6932 229.758 36.733C227.635 35.7727 225.814 34.2497 224.494 32.3289C223.174 30.4081 222.404 28.1627 222.269 25.8359C222.134 23.5091 222.638 21.1896 223.726 19.1287C224.815 17.0677 226.446 15.3439 228.444 14.1439C230.442 12.9439 232.731 12.3134 235.061 12.3208L234.983 12.2914ZM244.012 23.2665C243.597 21.1774 242.47 19.297 240.823 17.9457C239.177 16.5944 237.113 15.8559 234.983 15.8559C232.853 15.8559 230.789 16.5944 229.142 17.9457C227.496 19.297 226.369 21.1774 225.953 23.2665H244.012ZM174.379 12.989H177.965V37.0813H174.379V33.8978C172.614 35.7371 170.339 37.0064 167.848 37.5424C165.356 38.0784 162.76 37.8567 160.396 36.9058C158.031 35.9548 156.005 34.3181 154.578 32.2062C153.151 30.0942 152.388 27.6036 152.388 25.0548C152.388 22.5059 153.151 20.0154 154.578 17.9034C156.005 15.7915 158.031 14.1548 160.396 13.2038C162.76 12.2529 165.356 12.0312 167.848 12.5672C170.339 13.1032 172.614 14.3725 174.379 16.2118V12.989ZM165.221 15.8384C163.401 15.8462 161.625 16.393 160.116 17.4097C158.607 18.4265 157.433 19.8677 156.742 21.5512C156.052 23.2347 155.876 25.0851 156.236 26.8687C156.597 28.6522 157.478 30.289 158.768 31.5722C160.058 32.8555 161.699 33.7276 163.485 34.0786C165.27 34.4296 167.12 34.2436 168.799 33.5441C170.479 32.8446 171.914 31.663 172.923 30.1486C173.932 28.6342 174.469 26.8548 174.467 25.0351C174.464 22.5968 173.495 20.2591 171.77 18.5349C170.046 16.8108 167.709 15.841 165.27 15.8384H165.221ZM131.637 37.042H128.051V3.11426H131.637V16.1233C132.524 14.9384 133.672 13.9748 134.993 13.3083C136.315 12.6417 137.772 12.2903 139.252 12.2815C140.515 12.2799 141.765 12.5309 142.929 13.0199C144.093 13.5089 145.148 14.226 146.03 15.1288C146.913 16.0316 147.606 17.102 148.069 18.2769C148.531 19.4517 148.754 20.7073 148.724 21.9696V37.042H145.138V21.6158C145.151 20.843 145.009 20.0754 144.721 19.358C144.433 18.6407 144.005 17.9882 143.461 17.4389C142.917 16.8896 142.269 16.4546 141.555 16.1595C140.84 15.8644 140.074 15.7151 139.301 15.7205C138.313 15.6983 137.329 15.872 136.408 16.2315C135.487 16.5909 134.646 17.1291 133.933 17.815C133.221 18.5008 132.651 19.3209 132.257 20.2278C131.863 21.1348 131.653 22.1107 131.637 23.0995V37.042ZM192.9 16.1135C192.004 16.0952 191.113 16.2557 190.28 16.5857C189.447 16.9156 188.688 17.4083 188.048 18.035C187.408 18.6617 186.898 19.4097 186.551 20.2355C186.203 21.0612 186.023 21.948 186.022 22.844V37.042H182.445V12.9595H186.022V15.6714C186.882 14.6741 187.935 13.8602 189.116 13.2778C190.298 12.6955 191.585 12.3567 192.9 12.2815V16.1135ZM205.742 15.9072C203.92 15.9052 202.139 16.4438 200.623 17.4547C199.108 18.4655 197.926 19.9033 197.228 21.586C196.53 23.2687 196.347 25.1206 196.702 26.9074C197.057 28.6943 197.934 30.3356 199.222 31.6238C200.51 32.9119 202.151 33.789 203.938 34.1439C205.725 34.4988 207.577 34.3157 209.26 33.6176C210.942 32.9196 212.38 31.738 213.391 30.2225C214.402 28.707 214.94 26.9256 214.939 25.1039C214.946 23.8908 214.714 22.6881 214.256 21.5649C213.797 20.4417 213.121 19.4203 212.266 18.5592C211.412 17.6982 210.395 17.0146 209.276 16.5476C208.156 16.0807 206.955 15.8397 205.742 15.8384V15.9072Z" fill="#121212"/>
</g>
<defs>
<clipPath id="clip0_2_2614">
<rect width="247.955" height="46.5772" fill="white" transform="translate(0 0.711426)"/>
</clipPath>
<clipPath id="clip1_2_2614">
<rect width="42.3338" height="42.3338" fill="white" transform="translate(0.0112305 0.845703)"/>
</clipPath>
</defs>
</svg>
