<svg width="43" height="44" viewBox="0 0 43 44" fill="none" xmlns="http://www.w3.org/2000/svg">
<g clip-path="url(#clip0_2_2615)">
<path fill-rule="evenodd" clip-rule="evenodd" d="M26.2625 0.845704L16.0948 0.845703V4.38941H14.5841C10.3724 4.38941 6.9582 7.80362 6.9582 12.0153L6.95814 20.2751L10.5895 17.688L10.5896 12.0153C10.5896 9.80916 12.378 8.02076 14.5841 8.02076H27.768C29.9741 8.02076 31.7625 9.80916 31.7625 12.0153L31.7625 14.9981L35.3938 14.152L35.3939 12.0153C35.3939 7.80361 31.9796 4.38941 27.768 4.38941H26.2625V0.845704ZM10.5894 32.3188L6.95803 33.1654L6.95801 35.5537C6.95801 39.7653 10.3722 43.1795 14.5839 43.1795H27.7678C31.9794 43.1795 35.3937 39.7653 35.3937 35.5537L35.3937 27.0443L31.7624 29.631L31.7623 35.5537C31.7623 37.7598 29.9739 39.5482 27.7678 39.5482H14.5839C12.3778 39.5482 10.5894 37.7598 10.5894 35.5537L10.5894 32.3188Z" fill="#121212"/>
<path d="M40.9605 17.4501C40.7533 17.1808 40.4316 16.9726 40.048 16.8594C39.6643 16.7463 39.2413 16.7348 38.848 16.8271L25.4299 19.9534L25.4299 14.4671C25.4301 14.1979 25.326 13.9345 25.1307 13.7095C24.9354 13.4845 24.6573 13.3078 24.3307 13.201C24.0042 13.0943 23.6435 13.0623 23.2932 13.109C22.9429 13.1556 22.6183 13.2789 22.3595 13.4636L1.71877 28.169C1.41896 28.3825 1.22349 28.6664 1.16421 28.9747C1.10494 29.283 1.18536 29.5973 1.39236 29.8666C1.59935 30.1358 1.92073 30.344 2.3041 30.4573C2.68747 30.5706 3.11023 30.5823 3.50348 30.4904L16.9252 27.3613L16.9252 32.8475C16.9251 33.1168 17.0291 33.3801 17.2244 33.6051C17.4198 33.8301 17.6979 34.0069 18.0244 34.1136C18.351 34.2204 18.7117 34.2524 19.062 34.2057C19.4123 34.159 19.7369 34.0358 19.9957 33.8511L40.6364 19.1484C40.9366 18.9351 41.1325 18.651 41.192 18.3426C41.2516 18.0341 41.1713 17.7195 40.9642 17.4501L40.9605 17.4501Z" fill="#EDD747"/>
</g>
<defs>
<clipPath id="clip0_2_2615">
<rect width="42.3338" height="42.3338" fill="white" transform="translate(0.0112305 0.845703)"/>
</clipPath>
</defs>
</svg>
