<svg width="62" height="65" viewBox="0 0 62 65" fill="none" xmlns="http://www.w3.org/2000/svg">
<g id="Group 482491">
<path id="Subtract" fill-rule="evenodd" clip-rule="evenodd" d="M38.6862 0.589845L23.3146 0.589844V5.94719H21.0307C14.6636 5.94719 9.50201 11.1088 9.50201 17.4759L9.5019 29.9631L14.9918 26.0519L14.9919 17.4759C14.9919 14.1407 17.6955 11.437 21.0307 11.437H40.9621C44.2973 11.437 47.001 14.1407 47.001 17.4759L47.0009 21.9854L52.4908 20.7063L52.4908 17.4759C52.4908 11.1088 47.3292 5.94719 40.9621 5.94719H38.6862V0.589845ZM14.9916 48.1706L9.50174 49.4505L9.50171 53.0611C9.50171 59.4283 14.6633 64.5898 21.0304 64.5898H40.9618C47.329 64.5898 52.4905 59.4283 52.4905 53.0611L52.4906 40.1967L47.0007 44.1073L47.0007 53.0611C47.0007 56.3963 44.297 59.1 40.9618 59.1H21.0304C17.6953 59.1 14.9916 56.3963 14.9916 53.0611L14.9916 48.1706Z" fill="white"/>
<path id="Vector" d="M60.907 25.6927C60.5937 25.2855 60.1074 24.9707 59.5274 24.7996C58.9474 24.6286 58.3079 24.6113 57.7133 24.7507L37.4279 29.4771L37.4279 21.183C37.4281 20.776 37.2708 20.3778 36.9755 20.0377C36.6802 19.6975 36.2598 19.4303 35.7661 19.269C35.2724 19.1076 34.7272 19.0592 34.1976 19.1298C33.668 19.2003 33.1773 19.3867 32.786 19.6659L1.58153 41.8975C1.12829 42.2201 0.832775 42.6494 0.743161 43.1154C0.65355 43.5815 0.775128 44.0567 1.08807 44.4638C1.40101 44.8708 1.88686 45.1856 2.46644 45.3569C3.04602 45.5281 3.68514 45.5457 4.27964 45.4068L24.5705 40.6763L24.5705 48.9704C24.5703 49.3774 24.7276 49.7756 25.0229 50.1157C25.3182 50.4558 25.7386 50.7231 26.2323 50.8844C26.726 51.0458 27.2713 51.0942 27.8009 51.0236C28.3304 50.9531 28.8211 50.7667 29.2124 50.4875L60.4169 28.2601C60.8708 27.9376 61.167 27.5082 61.257 27.0419C61.347 26.5756 61.2255 26.1 60.9125 25.6927L60.907 25.6927Z" fill="#EDD747"/>
</g>
</svg>
