<svg width="388" height="73" viewBox="0 0 388 73" fill="none" xmlns="http://www.w3.org/2000/svg">
<g clip-path="url(#clip0_0_687)">
<g clip-path="url(#clip1_0_687)">
<path fill-rule="evenodd" clip-rule="evenodd" d="M41.0267 0.891847L25.1428 0.891846V6.42774H22.7829C16.2035 6.42774 10.8699 11.7613 10.8699 18.3407L10.8698 31.244L16.5427 27.2024L16.5428 18.3407C16.5428 14.8943 19.3365 12.1006 22.7829 12.1006H43.3785C46.8248 12.1006 49.6186 14.8943 49.6186 18.3407L49.6186 23.0004L55.2914 21.6787L55.2914 18.3407C55.2914 11.7613 49.9578 6.42774 43.3785 6.42774H41.0267V0.891847ZM16.5425 50.0583L10.8697 51.3808L10.8696 55.1118C10.8696 61.6912 16.2032 67.0248 22.7826 67.0248H43.3782C49.9575 67.0248 55.2911 61.6912 55.2911 55.1118L55.2912 41.8187L49.6184 45.8596L49.6183 55.1118C49.6183 58.5581 46.8245 61.3519 43.3782 61.3519H22.7826C19.3362 61.3519 16.5424 58.5581 16.5424 55.1118L16.5425 50.0583Z" fill="white"/>
<path d="M63.9878 26.8311C63.6641 26.4103 63.1616 26.085 62.5623 25.9083C61.9629 25.7315 61.3022 25.7137 60.6877 25.8577L39.7263 30.7416L39.7263 22.1711C39.7265 21.7505 39.564 21.3391 39.2588 20.9876C38.9537 20.6361 38.5192 20.36 38.0091 20.1933C37.499 20.0265 36.9355 19.9765 36.3883 20.0494C35.8411 20.1223 35.334 20.3149 34.9297 20.6034L2.6853 43.5759C2.21695 43.9093 1.91158 44.3529 1.81899 44.8345C1.72639 45.316 1.85202 45.8071 2.17539 46.2277C2.49876 46.6483 3.0008 46.9736 3.59969 47.1506C4.19859 47.3276 4.85901 47.3458 5.47332 47.2022L26.4405 42.314L26.4405 50.8846C26.4402 51.3051 26.6027 51.7166 26.9079 52.068C27.213 52.4195 27.6475 52.6957 28.1576 52.8624C28.6677 53.0291 29.2312 53.0791 29.7784 53.0062C30.3257 52.9333 30.8327 52.7408 31.237 52.4522L63.4814 29.4841C63.9505 29.1508 64.2565 28.7071 64.3495 28.2252C64.4425 27.7434 64.317 27.252 63.9935 26.8311L63.9878 26.8311Z" fill="#F4DE49"/>
</g>
<path fill-rule="evenodd" clip-rule="evenodd" d="M144.397 18.7556V24.6344C142.997 24.6058 141.606 24.8566 140.305 25.372C139.003 25.8874 137.818 26.6571 136.817 27.6361C135.817 28.6151 135.021 29.7837 134.478 31.0736C133.935 32.3636 133.654 33.7489 133.652 35.1487V57.4359H128.065V19.8147H133.652V24.0511C134.997 22.4933 136.641 21.2217 138.486 20.312C140.332 19.4023 142.342 18.873 144.397 18.7556ZM116.384 34.4426C116.336 30.771 115.203 27.1957 113.128 24.1664C111.052 21.137 108.128 18.7889 104.722 17.4173C101.316 16.0456 97.5802 15.7118 93.9848 16.4577C90.3895 17.2036 87.095 18.9959 84.5156 21.6093C81.9362 24.2227 80.1872 27.5404 79.4885 31.1453C78.7898 34.7501 79.1725 38.481 80.5887 41.8688C82.0048 45.2567 84.3911 48.1501 87.4473 50.1853C90.5036 52.2205 94.0935 53.3066 97.7654 53.3069C101.072 53.3181 104.321 52.4436 107.174 50.7743L101.833 44.2201L106.177 40.6898L111.503 47.2439C114.67 43.7353 116.411 39.1693 116.384 34.4426ZM97.7654 58.6485C92.1905 58.6312 86.7935 56.684 82.4918 53.1379C78.1901 49.5917 75.2491 44.6654 74.1685 39.1962C73.088 33.727 73.9346 28.0523 76.5646 23.1367C79.1945 18.2211 83.4455 14.3678 88.595 12.2318C93.7444 10.0957 99.4747 9.80873 104.812 11.4195C110.149 13.0303 114.764 16.4396 117.872 21.0678C120.98 25.696 122.389 31.2576 121.86 36.8074C121.332 42.3573 118.898 47.5528 114.972 51.511L121.296 59.3085L116.952 62.8388L110.597 54.9953C106.748 57.3949 102.301 58.661 97.7654 58.6485Z" fill="white"/>
<path fill-rule="evenodd" clip-rule="evenodd" d="M341.313 19.8607V52.3552C341.237 57.1658 339.425 61.787 336.212 65.3678C332.999 68.9487 328.6 71.2479 323.825 71.8421C319.051 72.4364 314.223 71.2855 310.23 68.6017C306.237 65.9178 303.348 61.8815 302.095 57.2363H307.851C308.856 60.0149 310.694 62.4156 313.114 64.1106C315.535 65.8056 318.419 66.7123 321.374 66.7068C323.248 66.723 325.107 66.3676 326.843 65.6612C328.578 64.9548 330.157 63.9113 331.487 62.591C332.818 61.2708 333.873 59.7 334.593 57.9694C335.312 56.2389 335.681 54.3829 335.679 52.5087C332.923 55.3819 329.37 57.3648 325.477 58.2022C321.584 59.0395 317.53 58.6932 313.836 57.2076C310.141 55.722 306.976 53.1652 304.747 49.866C302.518 46.5668 301.326 42.6761 301.326 38.6943C301.326 34.7126 302.518 30.8219 304.747 27.5227C306.976 24.2234 310.141 21.6666 313.836 20.181C317.53 18.6955 321.584 18.3491 325.477 19.1865C329.37 20.0239 332.923 22.0067 335.679 24.88V19.8607H341.313ZM187.881 25.8163C185.992 22.0555 182.882 19.0472 179.061 17.2833C175.24 15.5195 170.934 15.1045 166.846 16.1064C162.758 17.1082 159.132 19.4675 156.559 22.7984C153.987 26.1293 152.621 30.2345 152.685 34.4426C152.585 38.6826 153.936 42.8296 156.516 46.1963C159.095 49.563 162.747 51.9473 166.867 52.954C170.987 53.9607 175.328 53.5294 179.169 51.7316C183.01 49.9338 186.122 46.8773 187.988 43.0689H194.021C192.004 48.3563 188.198 52.7701 183.265 55.5431C178.332 58.3161 172.584 59.2731 167.018 58.2478C161.453 57.2224 156.423 54.2796 152.802 49.9307C149.181 45.5817 147.198 40.1016 147.198 34.4426C147.198 28.7836 149.181 23.3034 152.802 18.9545C156.423 14.6055 161.453 11.6627 167.018 10.6374C172.584 9.61203 178.332 10.569 183.265 13.342C188.198 16.1151 192.004 20.5288 194.021 25.8163H187.881ZM367.084 18.7709C372.376 18.7709 377.452 20.8732 381.194 24.6154C384.936 28.3575 387.038 33.4329 387.038 38.725C387.042 39.6497 386.975 40.5734 386.839 41.4879H353.07C353.63 44.3679 355.057 47.0077 357.162 49.0522C359.266 51.0967 361.946 52.4479 364.841 52.9243C367.736 53.4006 370.707 52.9793 373.355 51.7168C376.004 50.4544 378.202 48.4114 379.655 45.8624H385.795C384.501 49.2658 382.3 52.2502 379.432 54.4924C376.563 56.7347 373.135 58.1492 369.52 58.583C365.905 59.0167 362.24 58.453 358.923 56.953C355.605 55.453 352.761 53.0738 350.699 50.0732C348.636 47.0725 347.434 43.5648 347.223 39.9299C347.011 36.295 347.799 32.6716 349.499 29.452C351.199 26.2325 353.748 23.5395 356.87 21.6649C359.991 19.7903 363.566 18.8054 367.207 18.817L367.084 18.7709ZM381.19 35.9161C380.541 32.6525 378.78 29.715 376.208 27.6041C373.636 25.4931 370.411 24.3393 367.084 24.3393C363.756 24.3393 360.532 25.4931 357.96 27.6041C355.388 29.715 353.627 32.6525 352.978 35.9161H381.19ZM272.409 19.8607H278.012V57.4972H272.409V52.524C269.653 55.3973 266.1 57.3801 262.207 58.2175C258.314 59.0549 254.26 58.7085 250.566 57.223C246.872 55.7374 243.706 53.1806 241.477 49.8813C239.248 46.5821 238.057 42.6914 238.057 38.7097C238.057 34.7279 239.248 30.8372 241.477 27.538C243.706 24.2388 246.872 21.682 250.566 20.1964C254.26 18.7108 258.314 18.3645 262.207 19.2018C266.1 20.0392 269.653 22.0221 272.409 24.8953V19.8607ZM258.104 24.312C255.261 24.3242 252.486 25.1784 250.129 26.7668C247.771 28.3551 245.938 30.6065 244.859 33.2364C243.78 35.8664 243.505 38.757 244.068 41.5433C244.631 44.3295 246.007 46.8864 248.023 48.8911C250.038 50.8957 252.602 52.2582 255.391 52.8064C258.181 53.3547 261.07 53.0641 263.694 51.9714C266.318 50.8787 268.56 49.0329 270.135 46.6671C271.711 44.3013 272.551 41.5216 272.548 38.679C272.544 34.8699 271.029 31.2179 268.335 28.5245C265.642 25.8311 261.99 24.3161 258.181 24.312H258.104ZM205.64 57.4358H200.038V4.43469H205.64V24.7572C207.025 22.906 208.819 21.4008 210.883 20.3595C212.947 19.3182 215.224 18.7692 217.536 18.7556C219.508 18.753 221.461 19.1452 223.28 19.9091C225.098 20.673 226.746 21.7931 228.125 23.2035C229.504 24.6139 230.586 26.286 231.309 28.1214C232.032 29.9567 232.38 31.9181 232.332 33.89V57.4358H226.73V33.3374C226.75 32.1301 226.529 30.9309 226.08 29.8103C225.63 28.6898 224.96 27.6704 224.111 26.8123C223.261 25.9543 222.249 25.2747 221.133 24.8137C220.017 24.3527 218.82 24.1195 217.613 24.1278C216.068 24.0932 214.532 24.3645 213.093 24.9261C211.654 25.4876 210.34 26.3283 209.227 27.3998C208.114 28.4712 207.224 29.7523 206.609 31.1691C205.993 32.5859 205.664 34.1105 205.64 35.6552V57.4358ZM301.343 24.7418C299.943 24.7132 298.552 24.964 297.251 25.4794C295.95 25.9948 294.764 26.7645 293.764 27.7435C292.763 28.7225 291.968 29.8911 291.424 31.181C290.881 32.471 290.6 33.8563 290.598 35.2561V57.4358H285.011V19.8147H290.598V24.0511C291.943 22.4933 293.587 21.2217 295.433 20.312C297.279 19.4022 299.288 18.873 301.343 18.7556V24.7418ZM321.404 24.4195C318.559 24.4164 315.776 25.2578 313.408 26.8369C311.041 28.4161 309.195 30.6622 308.105 33.2908C307.014 35.9195 306.728 38.8125 307.282 41.6038C307.837 44.3952 309.207 46.9593 311.219 48.9716C313.232 50.9839 315.796 52.354 318.587 52.9084C321.378 53.4629 324.271 53.1768 326.9 52.0863C329.529 50.9959 331.775 49.1501 333.354 46.7826C334.933 44.4151 335.774 41.6323 335.771 38.7864C335.784 36.8913 335.421 35.0124 334.705 33.2578C333.988 31.5032 332.932 29.9075 331.597 28.5625C330.262 27.2174 328.674 26.1494 326.925 25.42C325.176 24.6905 323.3 24.314 321.404 24.312V24.4195Z" fill="white"/>
</g>
<defs>
<clipPath id="clip0_0_687">
<rect width="387.35" height="72.0376" fill="white" transform="translate(0 0.681396)"/>
</clipPath>
<clipPath id="clip1_0_687">
<rect width="66.1329" height="66.1329" fill="white" transform="translate(0.0180664 0.891846)"/>
</clipPath>
</defs>
</svg>
